# AST/ASF file generated using VICON BodyLanguage
# -----------------------------------------------
:version 1.10
:name VICON
:units
  mass 1.0
  length 0.45
  angle deg
:documentation
   .ast/.asf automatically generated from VICON data using
   VICON BodyBuilder and BodyLanguage model FoxedUp or BRILLIANT.MOD
:root
   order TX TY TZ RX RY RZ
   axis XYZ
   position 0 0 0  
   orientation 0 0 0 
:bonedata
  begin
     id 1 
     name lhipjoint
     direction 0.522423 -0.726805 0.445902 
     length 2.25074 
     axis 0 0 0  XYZ
  end
  begin
     id 2 
     name lfemur
     direction 0.34202 -0.939693 0  
     length 6.54609  
     axis 0 0 20  XYZ
    dof rx ry rz
    limits (-160.0 20.0)
           (-70.0 70.0)
           (-60.0 70.0)
  end
  begin
     id 3 
     name ltibia
     direction 0.34202 -0.939693 0   
     length 7.7528   
     axis 0 0 20   XYZ
    dof rx
    limits (-10.0 170.0)
  end
  begin
     id 4 
     name lfoot
     direction 0.143696 -0.394801 0.90746   
     length 1.73269   
     axis -90 7.62852e-016 20   XYZ
    dof rx rz
    limits (-45.0 90.0)
           (-70.0 20.0)
  end
  begin
     id 5 
     name ltoes
     direction 1.53633e-011 -4.21912e-011 1   
     length 0.858383   
     axis -90 7.62852e-016 20   XYZ
    dof rx
    limits (-90.0 20.0)
  end
  begin
     id 6 
     name rhipjoint
     direction -0.515943 -0.73016 0.447961   
     length 2.2404  
     axis 0 0 0  XYZ 
  end
  begin
     id 7 
     name rfemur
     direction -0.34202 -0.939693 0   
     length 6.84377   
     axis 0 0 -20   XYZ
    dof rx ry rz
    limits (-160.0 20.0)
           (-70.0 70.0)
           (-70.0 60.0)
  end
  begin
     id 8 
     name rtibia
     direction -0.34202 -0.939693 0   
     length 7.57596   
     axis 0 0 -20   XYZ
    dof rx
    limits (-10.0 170.0)
 end
 begin
     id 9 
     name rfoot
     direction -0.0999372 -0.274575 0.956358   
     length 1.78783  
     axis -90 -7.62852e-016 -20   XYZ
    dof rx rz
    limits (-45.0 90.0)
           (-20.0 70.0)
  end
  begin
     id 10 
     name rtoes
     direction -1.53535e-011 -4.21895e-011 1   
     length 0.898614   
     axis -90 -7.62852e-016 -20   XYZ
    dof rx
    limits (-90.0 20.0)
  end
  begin
     id 11 
     name lowerback
     direction -0.011775 0.996164 -0.0867116   
     length 1.91499   
     axis 0 0 0   XYZ
    dof rx ry rz
    limits (-20.0 45.0)
           (-30.0 30.0)
           (-30.0 30.0)
  end
  begin
     id 12 
     name upperback
     direction -0.00189771 0.999673 -0.0254833   
     length 1.92213   
     axis 0 0 0   XYZ
    dof rx ry rz
    limits (-20.0 45.0)
           (-30.0 30.0)
           (-30.0 30.0)
  end
  begin
     id 13 
     name thorax
     direction 0.00335995 0.999878 0.0152401   
     length 1.93138   
     axis 0 0 0   XYZ
    dof rx ry rz
    limits (-20.0 45.0)
           (-30.0 30.0)
           (-30.0 30.0)
  end
  begin
     id 14 
     name lowerneck
     direction 0.00233191 0.998509 0.0545404   
     length 1.59408   
     axis 0 0 0   XYZ
    dof rx ry rz
    limits (-20.0 45.0)
           (-30.0 30.0)
           (-30.0 30.0)
  end
  begin
     id 15 
     name upperneck
     direction 0.07881 0.9956 -0.0506934   
     length 1.59344   
     axis 0 0 0   XYZ
    dof rx ry rz
    limits (-20.0 45.0)
           (-30.0 30.0)
           (-30.0 30.0)
  end
  begin
     id 16
     name head
     direction 0.0261681 0.999378 -0.0236299  
     length 1.60935  
     axis 0 0 0   XYZ
    dof rx ry rz
    limits (-20.0 45.0)
           (-30.0 30.0)
           (-30.0 30.0)
  end
  begin
     id 17 
     name lclavicle
     direction 0.96643 0.252035 0.0499195  
     length 3.82153  
     axis 0 0 0   XYZ
    dof ry rz
    limits (-20.0 10.0)
           (0.0 20.0)
  end
  begin
     id 18 
     name lhumerus
     direction 1 -4.48967e-011 -2.01614e-018   
     length 4.87796   
     axis 180 -30 -90   XYZ
    dof rx ry rz
    limits (-60.0 90.0)
           (-90.0 90.0)
           (-90.0 90.0)
  end
  begin
     id 19
     name lradius
     direction 1 -4.48958e-011 3.1409e-027   
     length 3.23169   
     axis 180 -30 -90   XYZ
    dof rx
    limits (-10.0 170.0)
  end
  begin
     id 20
     name lwrist
     direction 1 -4.48924e-011 1.0365e-027   
     length 1.61584   
     axis -2.56395e-016 90 90   XYZ
    dof ry
    limits (-180.0 0.0)
 end
  begin
     id 21 
     name lhand
     direction 1 -4.49055e-011 2.09488e-027   
     length 0.731324   
     axis -1.32723e-015 90 90   XYZ
    dof rx rz
    limits (-90.0 90.0)
           (-45.0 45.0)
  end
  begin
     id 22 
     name lfingers
     direction 1 -4.48935e-011 4.14981e-027   
     length 0.589612   
     axis -2.6545e-015 90 90   XYZ
    dof rx
    limits (0.0 90.0)
  end
  begin
     id 23
     name lthumb
     direction 0.707107 -6.35097e-011 0.707107   
     length 0.846569   
     axis -90 45 5.05613e-014   XYZ
    dof rx rz
    limits (-45.0 45.0)
           (-45.0 45.0)
  end
  begin
     id 24 
     name rclavicle
     direction -0.979337 0.201016 0.0221522   
     length 3.73827  
     axis 0 0 0   XYZ 
    dof ry rz
    limits (-10.0 20.0)
           (-20.0 0.0)
  end
  begin
     id 25 
     name rhumerus
     direction -1 -4.48971e-011 1.65907e-027  
     length 4.9143   
     axis 180 30 90   XYZ
    dof rx ry rz
    limits (-90.0 60.0)
           (-90.0 90.0)
           (-90.0 90.0)
  end
  begin
     id 26 
     name rradius
     direction -1 -4.4894e-011 2.17871e-028   
     length 3.29093   
     axis 180 30 90   XYZ
    dof rx
    limits (-10.0 170.0)
  end
  begin
     id 27 
     name rwrist
     direction -1 -4.48971e-011 1.04038e-027   
     length 1.64546   
     axis -2.56395e-016 -90 -90   XYZ
    dof ry
    limits (-180.0 0.0)
  end
  begin
     id 28
     name rhand
     direction -1 -4.49017e-011 2.08843e-027   
     length 0.54512   
     axis -1.32723e-015 -90 -90   XYZ
    dof rx rz
    limits (-90.0 90.0)
           (-45.0 45.0)
  end
  begin
     id 29
     name rfingers
     direction -1 -4.48918e-011 4.1439e-027   
     length 0.43949   
     axis -2.6545e-015 -90 -90   XYZ
    dof rx
    limits (0.0 90.0)
  end
  begin
     id 30
     name rthumb
     direction -0.707107 -6.35065e-011 0.707107   
     length 0.631022   
     axis -90 -45 -5.05613e-014   XYZ
    dof rx rz
    limits (-45.0 45.0)
           (-45.0 45.0)
  end
:hierarchy
  begin
    root lhipjoint rhipjoint lowerback
    lhipjoint lfemur
    lfemur ltibia
    ltibia lfoot
    lfoot ltoes
    rhipjoint rfemur
    rfemur rtibia
    rtibia rfoot
    rfoot rtoes
    lowerback upperback
    upperback thorax
    thorax lowerneck lclavicle rclavicle
    lowerneck upperneck
    upperneck head
    lclavicle lhumerus
    lhumerus lradius
    lradius lwrist
    lwrist lhand lthumb
    lhand lfingers
    rclavicle rhumerus
    rhumerus rradius
    rradius rwrist
    rwrist rhand rthumb
    rhand rfingers
  end

#!OML:ASF H:\BreakDance\Project 1\Capture day 1\Session 1\Male.ASF
:FULLY-SPECIFIED
:DEGREES
1828
root -16.4377 16.3265 -0.679449 699.682 -79.5351 -683.515
lowerback 5.10715 -1.94686 3.84114
upperback 5.78978 -2.69828 1.87787
thorax 3.04101 -1.31894 -0.149376
lowerneck 5.57832 -6.77322 -0.478479
upperneck -15.5031 -8.79137 4.78919
head -5.34253 -4.71073 2.1114
rclavicle 7.15625e-015 1.74931e-014
rhumerus -26.6903 43.4021 -95.7281
rradius 106.145
rwrist -1.55685
rhand -4.73883 -6.95545
rfingers 7.12502
rthumb 21.0443 324.166
lclavicle 7.15625e-015 1.74931e-014
lhumerus -13.9098 -48.826 72.2873
lradius 85.6133
lwrist 5.62805
lhand -7.90941 -32.9533
lfingers 7.12502
lthumb 17.996 -3.76588
rfemur -43.6264 -17.0598 23.2104
rtibia 50.3637
rfoot -26.4706 -8.94678
rtoes 26.5003
lfemur -36.5627 22.7235 -8.43393
ltibia 118.091
lfoot 1.32317 -21.0156
ltoes -45.6367
1829
root -16.3317 16.3451 -0.730247 704.059 -77.4571 -687.896
lowerback 4.5105 -2.09424 3.54772
upperback 5.64588 -2.91304 1.91431
thorax 3.23141 -1.42884 0.0356883
lowerneck 5.20267 -7.05245 -0.916747
upperneck -15.4741 -9.13618 5.39459
head -5.20748 -4.89717 2.36388
rclavicle 6.36111e-014 3.49861e-014
rhumerus -24.034 44.9638 -92.6151
rradius 106.663
rwrist -3.69035
rhand -5.41159 -7.21104
rfingers 7.12502
rthumb 20.3979 323.84
lclavicle 6.36111e-014 3.49861e-014
lhumerus -13.5212 -47.1191 71.4715
lradius 86.0533
lwrist 5.41207
lhand -8.42312 -33.2245
lfingers 7.12502
lthumb 17.5017 -3.99229
rfemur -43.9752 -18.1038 23.0828
rtibia 50.3523
rfoot -26.1112 -9.74068
rtoes 26.2619
lfemur -34.8147 23.3221 -8.12199
ltibia 118.005
lfoot 1.80561 -22.0998
ltoes -46.0145
1830
root -16.2273 16.3748 -0.777411 707.861 -75.2824 -691.681
lowerback 3.86433 -2.28823 3.41684
upperback 5.49807 -3.18908 1.9844
thorax 3.44233 -1.56441 0.160552
lowerneck 4.90403 -7.32096 -1.4637
upperneck -15.4013 -9.46246 6.07797
head -5.05892 -5.07202 2.65442
rclavicle 5.80451e-014 1.11319e-014
rhumerus -21.1083 46.2792 -89.2379
rradius 107.047
rwrist -5.39969
rhand -6.1 -7.29427
rfingers 7.12502
rthumb 19.7362 323.688
lclavicle 5.80451e-014 1.11319e-014
lhumerus -13.0331 -45.3386 70.8131
lradius 86.2203
lwrist 5.28007
lhand -8.91639 -33.4536
lfingers 7.12502
lthumb 17.0269 -4.17983
rfemur -44.1735 -19.0348 23.0446
rtibia 50.0901
rfoot -25.7557 -10.7355
rtoes 26.3061
lfemur -33.2137 23.6212 -7.96272
ltibia 117.38
lfoot 2.0345 -22.6143
ltoes -46.6176
1831
root -16.1238 16.4146 -0.822395 711.18 -73.0443 -694.993
lowerback 3.24248 -2.49499 3.41846
upperback 5.33724 -3.48109 2.09567
thorax 3.6243 -1.70502 0.251499
lowerneck 4.74357 -7.57367 -2.12517
upperneck -15.3346 -9.76399 6.84218
head -4.92164 -5.23326 2.98945
rclavicle 2.62396e-014 3.02153e-014
rhumerus -18.0006 47.2935 -85.6484
rradius 107.237
rwrist -6.46609
rhand -6.94359 -7.15565
rfingers 7.12502
rthumb 18.9251 323.745
lclavicle 2.62396e-014 3.02153e-014
lhumerus -12.4665 -43.5269 70.366
lradius 86.1189
lwrist 5.1763
lhand -9.36633 -33.633
lfingers 7.12502
lthumb 16.5938 -4.32237
rfemur -44.1695 -19.7873 23.0594
rtibia 49.5694
rfoot -25.4473 -11.8802
rtoes 26.7131
lfemur -31.7683 23.6686 -7.94609
ltibia 116.233
lfoot 2.18909 -22.6146
ltoes -47.0294
1832
root -16.0199 16.4628 -0.866928 713.936 -70.7365 -697.833
lowerback 2.77273 -2.70002 3.4859
upperback 5.17074 -3.76614 2.23964
thorax 3.71526 -1.84272 0.343506
lowerneck 4.71582 -7.81322 -2.82518
upperneck -15.2869 -10.0499 7.60812
head -4.80623 -5.38497 3.33493
rclavicle 2.06736e-014 -1.27222e-014
rhumerus -14.8075 47.9811 -81.917
rradius 107.206
rwrist -6.86362
rhand -7.97905 -6.81795
rfingers 7.12502
rthumb 17.929 323.988
lclavicle 2.06736e-014 -1.27222e-014
lhumerus -11.8353 -41.7267 70.153
lradius 85.7623
lwrist 5.06448
lhand -9.75114 -33.7643
lfingers 7.12502
lthumb 16.2233 -4.42313
rfemur -43.8643 -20.3466 23.0285
rtibia 48.8147
rfoot -25.2291 -13.1264
rtoes 27.4747
lfemur -30.3781 23.4668 -8.04084
ltibia 114.571
lfoot 2.43903 -22.233
ltoes -46.9409
1833
root -15.9148 16.5179 -0.912444 716.048 -68.3829 -700.127
lowerback 2.48508 -2.89254 3.52384
upperback 5.00986 -4.02801 2.39494
thorax 3.71378 -1.97252 0.470685
lowerneck 4.66386 -8.06418 -3.42852
upperneck -15.159 -10.3624 8.23029
head -4.66985 -5.54353 3.61646
rclavicle 5.24792e-014 -1.59028e-014
rhumerus -11.5972 48.3396 -78.129
rradius 106.952
rwrist -6.74704
rhand -9.13733 -6.33992
rfingers 7.12502
rthumb 16.8142 324.368
lclavicle 5.24792e-014 -1.59028e-014
lhumerus -11.1302 -39.9476 70.1445
lradius 85.1708
lwrist 4.92701
lhand -10.0685 -33.879
lfingers 7.12502
lthumb 15.9177 -4.51318
rfemur -43.2707 -20.6913 22.861
rtibia 47.8771
rfoot -25.0814 -14.4806
rtoes 28.3209
lfemur -29.0235 23.0623 -8.27277
ltibia 112.419
lfoot 2.91577 -21.5971
ltoes -46.0285
